<svg xmlns="http://www.w3.org/2000/svg" id="Layer_1" viewBox="0 0 500 500">
    <defs>
        <style>
            .cls-4{fill:#ef3c3c}.cls-5{fill:#ce3838}.cls-6{fill:none;stroke:#000;stroke-linecap:round;stroke-linejoin:round;stroke-width:15px}
        </style>
    </defs>
    <path fill="#ffd72e" d="M434 307a184 184 0 11-368 0C66 206 148 8 250 8s184 198 184 299z"/>
    <path fill="#ffbf0b" d="M250 8a81 81 0 00-18 2c93 21 166 202 166 297a184 184 0 01-166 184l18 1a184 184 0 00184-185C434 206 352 8 250 8z"/>
    <path fill="#d82f23" d="M315 35c-62 40-128 57-183 64a439 439 0 00-28 52c66-2 163-17 247-78-12-15-24-28-36-38z"/>
    <path d="M315 35c-62 40-128 57-183 64a439 439 0 00-28 52c66-2 163-17 247-78-12-15-24-28-36-38z" class="cls-4"/>
    <path d="M326 89q13-7 25-16c-12-15-24-28-36-38l-22 13a273 273 0 0133 41z" class="cls-5"/>
    <path d="M399 158a464 464 0 00-23-46c-99 80-219 90-290 87a469 469 0 00-13 47c62 7 209 10 326-88z" class="cls-4"/>
    <path d="M371 179l28-21a464 464 0 00-23-46l-26 19a496 496 0 0121 48z" class="cls-5"/>
    <path d="M429 254a456 456 0 00-14-53 436 436 0 01-349 89v17a185 185 0 002 31c54 10 227 31 361-84z" class="cls-4"/>
    <path d="M396 279a360 360 0 0033-25 456 456 0 00-14-53 363 363 0 01-29 23 391 391 0 0110 55z" class="cls-5"/>
    <path d="M81 382a185 185 0 0039 56c75 11 195 11 301-63a184 184 0 0013-68v-3a423 423 0 01-353 78z" class="cls-4"/>
    <path d="M434 304a365 365 0 01-37 28 183 183 0 01-27 73 362 362 0 0051-30 184 184 0 0013-68v-3z" class="cls-5"/>
    <path d="M434 307a184 184 0 11-368 0C66 206 148 8 250 8s184 198 184 299z" class="cls-6"/>
    <path d="M315 35c-62 40-128 57-183 64a439 439 0 00-28 52c66-2 163-17 247-78-12-15-24-28-36-38zm84 123a464 464 0 00-23-46c-99 80-219 90-290 87a469 469 0 00-13 47c62 7 209 10 326-88z" class="cls-6"/>
    <path d="M429 254a456 456 0 00-14-53 436 436 0 01-349 89v17a185 185 0 002 31c54 10 227 31 361-84z" class="cls-6"/>
    <path d="M81 382a185 185 0 0039 56c75 11 195 11 301-63a184 184 0 0013-68v-3a423 423 0 01-353 78z" class="cls-6"/>
</svg>
