<svg xmlns="http://www.w3.org/2000/svg" width="24" height="24" viewBox="0 0 24 24"><g stroke="#000" stroke-linecap="round" stroke-linejoin="round" stroke-miterlimit="10" fill="none"><ellipse cx="8.013" cy="2.5" rx="7.5" ry="2"/><path d="M15.513 2.5v3c0 1.104-3.357 2-7.5 2-4.142 0-7.5-.896-7.5-2v-3M15.513 5.5v3c0 1.104-3.357 2-7.5 2-4.142 0-7.5-.896-7.5-2v-3"/><ellipse cx="16.013" cy="15.5" rx="7.5" ry="2"/><path d="M23.513 15.5v3c0 1.104-3.357 2-7.5 2-4.142 0-7.5-.896-7.5-2v-3M23.513 18.5v3c0 1.104-3.357 2-7.5 2-4.142 0-7.5-.896-7.5-2v-3M15.513 8.5v3c0 1.104-3.357 2-7.5 2-4.142 0-7.5-.896-7.5-2v-3M.513 11.5v3c0 1.104 3.358 2 7.5 2h.5M.513 14.5v3c0 1.104 3.358 2 7.5 2h.5M15.513 11.5v2"/></g></svg>
