<svg xmlns="http://www.w3.org/2000/svg" id="Layer_1" viewBox="0 0 1488 1784">
    <style>
        .st0{fill:#fff}.st1{fill:#050404}.st2{fill:#ff0037}
    </style>
    <path d="M16 485l76-124s56-60 104-64 269 33 269 33l247 48 480 217s122 67 81 168-77 184-97 186-297-68-297-68L587 763l-259-9s-211-52-222-51-90-32-90-32l-5-125 5-61z" class="st0"/>
    <g>
        <path d="M0 593l4 74c0 6 4 10 7 15 16 20 41 22 61 33 37 21 81 13 120 27 99 33 203 39 306 39 83 0 161 16 237 51 56 25 106 63 169 75 55 11 108 28 164 33 21 2 45 5 60 18 16 13 28 14 44 5 7-4 15-6 15 5-4 56 29 100 48 148 15 38 43 72 59 110 23 57 33 118 28 180-1 12-4 17-17 15-22-2-50 3-54 22-7 26-24 33-42 42-35 18-41 29-33 66 1 7-1 16-2 23-3 26-31 44-13 78 13 27 17 62 17 95 0 7 3 14 11 17s15-3 19-8c17-25 25-6 31 7 8 19 15 29 37 13 11-7 28-23 41-16 18 11 28 5 38-7s18-26 38-15c6 3 14-3 17-8 12-22 28-40 44-60 8-10 6-28 14-37 30-31 15-60-2-88-10-15-16-31-21-48-5-18-10-36-34-38-12-1-10-12-7-21 5-19 14-38 18-57 20-78 28-157 10-237-9-37-28-70-36-107-21-88 2-172 26-256 16-59 41-117 36-177-7-102-20-202-83-290-39-54-74-112-118-162-67-76-155-100-253-99-66 1-132 0-195-26-38-15-76-33-119-25-29 6-57 12-85 20-61 18-127 15-186 42-45 21-95 27-130 69-36 42-73 85-101 132-16 27-34 44-61 55-11 5-21 12-24 25-1 5-3 10-9 10-7 0-6-6-8-10l-7-7-2 9c1 13-3 24-9 36-10 24-30 41-43 63-26 41-24 89-25 147z" class="st0"/>
        <path d="M0 593c1-58-1-106 25-147 13-22 33-39 43-63 6-12 10-23 9-36l2-9 7 7c2 4 1 10 8 10 6 0 8-5 9-10 3-13 13-20 24-25 27-11 45-28 61-55 28-47 65-90 101-132 35-42 85-48 130-69 59-27 125-24 186-42 28-8 56-14 85-20 43-8 81 10 119 25 63 26 129 27 195 26 98-1 186 23 253 99 44 50 79 108 118 162 63 88 76 188 83 290 5 60-20 118-36 177-24 83-47 168-26 256 8 36 27 70 36 107 18 80 10 159-10 236-4 20-13 39-18 58-3 9-5 20 7 21 24 2 29 20 34 38 5 17 11 33 21 48 17 28 32 57 2 88-8 9-6 27-14 37-16 20-32 38-44 60-3 5-11 11-17 8-20-11-28 3-38 15s-20 18-38 7c-13-7-30 9-41 16-22 16-29 6-37-13-6-13-14-32-31-7-4 5-11 10-19 8-8-3-11-10-11-17 0-33-4-68-17-95-18-34 10-52 13-78 1-8 3-16 2-23-8-37-2-48 33-66 18-9 35-16 42-42 4-19 32-24 54-22 13 2 16-3 17-15 5-63-5-123-28-180-16-38-44-72-59-110-19-48-52-92-48-148 0-11-8-9-15-5-16 9-28 8-44-6-15-12-39-15-60-17-56-5-109-22-164-33-63-12-113-50-169-75-76-35-154-51-237-51-103 0-207-6-306-40-39-13-83-5-120-26-20-11-45-13-61-33-3-5-7-9-7-15l-4-74zm104-222c-17 9-20 26-24 42l-1 1h1c-4 13-13 25-10 40h-1l1 1v-1l4 8 2 6v10h-1l1 1-5 6h-1a10657 10657 0 0 1-13-9h-9l-6 4-2 2-13 20-3 9-2 10v74a7773 7773 0 0 1 1 42l1 6 12 28c2 11 11 16 20 18l49 7 242 40 10 1c21 4 41 2 62-1l16 1 46-2 18-1c21-1 42 5 62 0l28-4h2l19-1 1-1c14-2 28-5 43-2h4l36 6c3 0 5 3 8 5-2 2-4 5-7 6-13 7-27 2-41 4-5 0-11-1-14 4 4 2 8 6 12 7 55 9 97 47 147 67 31 12 60 33 93 42 44 13 88 20 133 24s89 13 134 12c9-1 12 6 11 14 0 4-6 9 0 11 3 1 11-4 12-7 7-19 20-33 29-50 29-52 38-111 46-169 4-29-22-38-42-53-45-33-93-60-143-84-5-2-16-5-13-11 5-12-4-13-10-14-42-9-79-32-118-50-71-34-137-79-215-99l-3-1-12-2-27-8-8-2-6-2-11-2-48-12-11-2-1-1h-4l-13-3v-1l-2 1-10-2v-1l-2 1-8-2-1-1-4 1-26-1-14-1-18-2h-22l-12-2h1l-1-1c-11-1-13-17-26-15l-18-4h-1l-17-4h-1l-11-2v-1l-10-1-11-1v-2l-4 1-11-2 1-1h-1l-30-3-16-1v-2l-8 1-29 2-22 2h-4l-14 2-2 1-10 1h-2l-8 2h-4l-10 2-7 2h-2l-7 2-16 7c-12-1-22 0-32 13l32-4 9 2-1 1h1c7 1 13 2 11 11l-15 6h-2l-7 2h-4l-13 2h-1l-25 7h-1zm747 57c7 4 13 9 20 12 27 9 55 14 80 27 57 29 118 48 173 81 30 18 62 35 85 61 12 13 21 27 38 18 19-10 17-29 9-46-36-86-85-162-154-226-2-1-3-4-4-6 3 1 6 0 8 2 14 8 28 15 39 28 4 3 8 7 12 1 6-11 7-3 10 2 29 44 53 91 88 131 4 4 7 11 13 7 6-3 2-8 1-13l-7-32-32-101c-2-6-1-13 5-16 5-3 9 0 11 4 39 64 58 133 58 208 0 19-16 29-19 45-5 24-9 49-11 74-5 53-18 106-26 158-2 10 1 23-9 26-21 7-22 24-21 40 7 67 24 131 50 193l5 6c1-2 3-5 3-8-2-22 2-44 7-65 1-3 4-8 6-8 5 0 3 5 3 9-4 69 12 135 34 199 25 76 32 153 8 231-1 3-1 9 1 10 5 4 7-2 10-5 34-33 46-78 56-122 21-99 16-195-25-288-23-52-26-107-23-163 0-3 3-6 4-9l3 9 5 42c1 3 4 10 6 10 6 0 5-7 5-11 3-25 2-50 8-73 28-103 56-206 39-315-8-51-10-103-36-149-34-60-70-120-111-177-45-62-98-110-173-130-68-18-139-5-209-13-2 0-5 3-6 5 0 2 2 6 4 7 23 6 39 22 56 36 33 28 69 53 94 91l2 10-9-5c-33-35-69-67-115-82-42-13-80-32-113-61-50-43-107-52-168-33-62 18-124 36-188 47-75 12-138 41-180 108-14 23-32 44-48 65l-10 8 15 2c80-4 158 3 232 34 18 8 34 19 55 17 11-1 22-3 33-1 47 12 93 23 141 31 55 11 110 25 162 45 7 3 16 8 17 12 0 6-10 1-17 6zm453 1081l-3-41c-1-8-3-11-12-7-7 3-15 3-22 5-23 10-42 27-54 47-8 14-6 35-18 51-18 24-4 52 3 73 6 16 7 29 6 43l-1 18c0 3 1 9 4 3 8-11 16-9 26-4 18 9 42 9 46 36 2 8 9 3 14 0 11-9 24-18 39-12 10 4 14 0 19-7 10-14 17-39 43-18l4-1c2-18 22-19 31-30 39-51 33-115-19-164-13-13-31-25-47 0l-17 19c-10 9-17 28-34 22-17-7-7-25-8-33z" class="st1"/>
        <path d="M80 413c4-16 7-33 24-42h2-1l25-7h1l13-2h4l7-2h2l15-6 1 1 1-1 3-6c-4-5-10-8-16-6l-9-3v-8l16-7 7-2 1 1 1-1 7-2v0l10-2h4l8-2h2l10-2 2 1v-1l14-2h4l22-2v0l29-2 8 1 16 1 30 4 11 2 4 1 11 1 10 2 11 2h1l17 4h1l18 4c12 0 12 21 26 16l12 2h22l18 2v1h14l25 1h6l8 2h2l10 2h2l13 3-2 2 7-1 11 2c15 7 32 10 48 12l11 2c0 6 3 3 6 2l8 2a61203 61203 0 0 1 39 10l-1 3 4-2c78 20 144 65 215 99 39 18 76 40 118 50 6 1 15 2 10 14-3 6 8 9 13 11 50 24 98 51 143 84 20 14 46 24 42 53-8 58-17 117-46 169-9 17-22 31-29 50-1 3-9 8-12 7-6-2 0-7 0-11 1-8-2-15-11-14-45 1-89-8-134-12s-89-11-133-24c-33-9-62-30-93-42-50-20-92-58-147-67-4-1-8-5-12-7 3-5 9-4 14-4 14-2 28 3 41-4 3-1 5-4 7-6-3-2-5-5-8-5l-36-6-1-1-3 1c-15-3-29-1-44 2v1l-19 1-1-1-1 1-28 4c-20 1-41-5-62 0l-18 1 1-1-1-1-46 4-16-1h1l-2-1-61 2-10-1 1-1h-2L98 693c-22-3-47 1-62-22l-12-28-1-6-1-26v-16-44-12-14-4l2-10h1l2-9 13-20 1 1 1-3 6-4h9l1 1 1-1 11 9-1 1 1 1 1-2 5-6 1-1h-1v-11h1l-3-5-4-8h1l-1-1v1c-3-15 6-27 10-40v-1z" class="st0"/>
        <path d="M851 428c7-5 17 0 17-6-1-4-10-9-17-12-52-20-107-34-162-44-48-9-94-20-141-32-11-2-22 0-33 1-21 2-37-9-55-17-74-31-152-38-232-34l-15-2 10-8c16-21 34-42 48-65 42-67 105-96 180-108 64-11 126-29 188-47 61-19 118-10 168 33 33 29 71 48 113 62 46 14 82 46 115 81l9 5c-1-3-1-7-3-10-24-38-60-63-93-91-17-14-33-30-56-36-2-1-4-5-4-7 1-2 4-5 6-5 70 8 141-5 209 13 75 20 128 68 173 130 41 57 76 117 111 177 26 46 28 98 36 149 17 109-11 212-39 315-6 23-5 48-8 73 0 4 1 11-6 11l-5-10-5-42-3-9c-1 3-4 6-4 9-3 56 0 111 23 163 41 93 46 189 25 288-10 44-22 89-56 122-3 3-5 9-10 5-2-1-2-7-1-10 24-78 17-155-8-231-22-64-38-130-34-199 0-4 2-9-3-9-2 0-5 5-6 8-5 21-9 43-7 65 0 3-2 6-3 8l-5-6c-26-62-43-126-50-193-1-16 0-33 21-40 10-3 7-16 9-26 8-52 21-105 26-158 2-25 6-50 11-74 3-16 19-26 19-45 0-75-19-144-58-208-3-4-6-7-11-4-6 3-7 10-5 16l32 101 7 32c0 5 5 10-1 13-6 4-9-3-13-7-35-40-59-87-88-131-3-5-4-13-10-2-4 6-8 2-12-1-11-13-25-20-39-28-3-2-5-1-8-2 1 2 2 5 4 6 69 64 118 140 154 226 8 17 10 36-9 46-17 9-26-5-38-18-23-26-55-43-85-61-55-33-116-52-173-81-25-13-53-18-80-27-7-3-13-8-20-12z" class="st2"/>
        <path d="M1304 1509c1 8-9 26 8 33 17 6 24-13 34-22l17-19c16-25 34-13 47 0 52 49 58 113 19 164-9 11-29 12-31 30l-4 1c-26-21-33 4-43 18-5 7-9 11-19 6-15-5-28 4-39 13-5 3-12 8-14 0-4-27-28-27-46-36-10-5-18-7-26 4-3 6-4 0-4-3l1-18c1-14 0-27-6-43-7-21-21-49-3-73 12-16 10-37 18-51 12-20 31-37 54-47 7-2 15-2 22-5 9-4 11-1 12 7l3 41zm-65 120c0 12 1 24 13 25 12 0 13-12 15-22l4-27c0-5 2-11-4-13-19-5-21-18-17-34l-1-8-5 1c-11 13-24 31-13 46 10 12 11 22 8 32z" class="st0"/>
        <path d="M36 671c15 23 40 19 62 22l249 42 1 1h-1l-242-40-49-7c-9-2-18-7-20-18zM152 331v8l-32 5c10-13 20-14 32-13zM357 737l61-2 2 1h-1c-21 3-41 5-62 1zM499 734c21-5 42 1 62 0-20 5-41-1-62 0zM649 374c-16-2-33-5-48-12l48 12zM435 737l46-4 1 1-1 1-46 2zM453 346c-14 5-14-16-26-16 13-2 15 14 26 15l1 1h-1zM343 314l-30-4 30 3h1l-1 1zM161 342c6-2 12 1 16 6l-3 6-1 1-1-1c2-9-4-10-11-11h-1l1-1zM487 348h-22 22zM701 388l-27-8 27 8zM22 595zM519 351h-14v-1l14 1zM22 539v0zM379 320l-10-2 10 1v1zM297 309l-8-1 8-1v2zM27 502l-2 9h-1l3-9zM666 378c-3 1-6 4-6-2l6 2zM23 637l1 6-1-6zM590 360l-7 1 2-2h4l1 1zM550 352h-6l5-1 1 1zM22 521v0zM74 462l3 5-1 1-2-6zM148 362zM238 312h-4 4zM358 317l-4-1 4-1v2zM198 318h-4 4zM654 726l4-1v1h-4zM716 391l-4 2 1-3 3 1zM42 480l-1 3-1-1 2-2zM105 371h1-2 1zM560 354h-2l2-1v1zM208 316h-2 2zM220 314v1l-2-1h2zM572 356h-2l2-1v1zM71 485l-1 2h-1l1-2h1zM59 476l-1 1-1-1h2zM76 478h1l-1 1-1-1h1zM70 454v-1l1 1h-1v1l-1-1h1zM49 476h-1 1zM168 324zM80 413v1h-1l1-1zM391 322h-1 1zM177 322l-1 1-1-1h2zM409 326h-1 1zM184 320v0zM157 360h-2 2zM610 729v-1h1l-1 1zM589 730l1-1 1 1h-2zM131 364h-1 1zM260 310v0z" class="st2"/>
        <path d="M1239 1629c3-10 2-20-8-32-11-15 2-33 13-46l5-1 1 8c-4 16-2 29 17 34 6 2 4 8 4 13l-4 27c-2 10-3 22-15 22-12-1-13-13-13-25z" class="st1"/>
    </g>
</svg>
