<svg width="45" height="45" xmlns="http://www.w3.org/2000/svg" xmlns:xlink="http://www.w3.org/1999/xlink">
    <defs>
        <path id="a" d="M.97 0h10v12h-10z"/>
        <path id="c" d="M-4 12.2v8.16h19.95V12.2H-4z"/>
    </defs>
    <g fill="none" fill-rule="evenodd">
        <circle cx="22.5" cy="22.5" r="22.5" fill="currentColor"/>
        <g transform="translate(17 12)">
            <mask id="b" fill="#fff">
                <use xlink:href="#a"/>
            </mask>
            <path d="M3.85 11.43a4.22 4.22 0 0 0 4.28-.03c1.68-.96 2.84-3.02 2.84-5.4 0-3.3-2.24-6-5-6s-5 2.7-5 6c0 2.4 1.18 4.48 2.88 5.43"
                  fill="#FFF" mask="url(#b)"/>
            <mask id="d" fill="#fff">
                <use xlink:href="#c"/>
            </mask>
            <path d="M14.1 15.47c-1.05-.63-2.6-1.2-4.36-1.83l-1.29-.47.02-.97a4.88 4.88 0 0 1-4.9.04l-.02.93-1.34.5a27.38 27.38 0 0 0-4.36 1.82C-3.91 16.34-4 20.36-4 20.36H15.95s-.09-4.04-1.85-4.9"
                  fill="#FFF" mask="url(#d)"/>
        </g>
    </g>
</svg>
