<?xml version="1.0" encoding="utf-8"?>
<!-- Generator: Adobe Illustrator 17.0.0, SVG Export Plug-In . SVG Version: 6.00 Build 0)  -->
<!DOCTYPE svg PUBLIC "-//W3C//DTD SVG 1.1//EN" "http://www.w3.org/Graphics/SVG/1.1/DTD/svg11.dtd">
<svg version="1.1" id="Layer_1" xmlns="http://www.w3.org/2000/svg" xmlns:xlink="http://www.w3.org/1999/xlink" x="0px" y="0px"
	 width="64px" height="64px" viewBox="0 0 64 64" enable-background="new 0 0 64 64" xml:space="preserve">
<g id="Layer_1_1_">
	<path fill="#B7B1A9" d="M32,0C14.328,0,0,14.327,0,32c0,17.672,14.327,32,32,32s32-14.327,32-32C64,14.328,49.672,0,32,0z
		 M31.998,7.949c2.139,0,3.876,1.734,3.876,3.874s-1.737,3.875-3.876,3.875s-3.873-1.736-3.873-3.875
		C28.125,9.683,29.858,7.949,31.998,7.949z M43.803,35.71c-0.879,0.266-1.81-0.176-2.204-1.002l-2.966-9.634
		c-0.144-0.473-0.644-0.74-1.118-0.596c-0.427,0.13-0.668,0.55-0.61,0.978c-0.013,0.017,4.384,14.381,5.057,16.579h-4.823v11.807
		c0,1.219-0.986,2.206-2.204,2.206c-1.218,0-2.207-0.988-2.207-2.206v-0.03V42.386v-0.351H32h-0.729v0.351v11.427v0.03
		c0,1.219-0.988,2.206-2.207,2.206c-1.218,0-2.204-0.988-2.204-2.206V42.036h-4.823c0.672-2.199,5.07-16.562,5.057-16.579
		c0.059-0.428-0.183-0.849-0.61-0.978c-0.473-0.144-0.974,0.122-1.118,0.596l-2.966,9.634c-0.393,0.826-1.324,1.267-2.204,1.002
		c-0.973-0.294-1.516-1.345-1.212-2.343c0,0,4.115-13.015,4.161-13.108c1.12-3.497,3.944-3.486,6.542-3.492h4.623
		c2.599,0.006,5.423-0.005,6.542,3.492c0.047,0.094,4.161,13.108,4.161,13.108C45.319,34.365,44.775,35.415,43.803,35.71z"/>
</g>
<g id="Layer_2">
</g>
</svg>
