<?xml version="1.0" encoding="utf-8"?>
<!-- Generator: Adobe Illustrator 16.0.0, SVG Export Plug-In . SVG Version: 6.00 Build 0)  -->
<!DOCTYPE svg PUBLIC "-//W3C//DTD SVG 1.1//EN" "http://www.w3.org/Graphics/SVG/1.1/DTD/svg11.dtd">
<svg version="1.1" id="Filled_Version" xmlns="http://www.w3.org/2000/svg" xmlns:xlink="http://www.w3.org/1999/xlink" x="0px"
	 y="0px" width="24px" height="24px" viewBox="0 0 24 24" enable-background="new 0 0 24 24" xml:space="preserve">
<g>
	<path fill="#c30000" d="M6.581,20H21v3.5c0,0.276-0.224,0.5-0.5,0.5h-17C3.225,24,3,23.776,3,23.5V20h3.069v0.001L6.581,20z M14,22h4v-1h-4V22z"/>
	<path fill="#c30000" d="M21,4.5V19h-3.006l-0.002-0.057c0.011-0.767-0.53-1.458-1.335-1.688l-2.618-0.633V15.83c0.874-0.678,1.447-1.776,1.46-3.02
		c-0.401,0.131-0.876,0.213-1.345,0.213c-0.246,0-0.49-0.022-0.721-0.072c-0.451-0.098-0.813-0.29-1.069-0.566
		c-0.831,0.456-2.036,0.534-2.949,0.386c-0.247-0.04-0.579-0.116-0.902-0.252C8.508,12.603,8.5,12.686,8.5,12.771
		c0,1.298,0.611,2.444,1.539,3.123v0.729l-2.637,0.639c-0.763,0.218-1.316,0.923-1.316,1.668L6.085,19H3V4.5C3,4.225,3.225,4,3.5,4
		H9V3c0-1.654,1.346-3,3-3s3,1.346,3,3v1h5.5C20.776,4,21,4.225,21,4.5z M11,3c0,0.552,0.447,1,1,1s1-0.448,1-1s-0.447-1-1-1
		S11,2.448,11,3z M15.377,11.796C14.977,10.188,13.617,9,12,9c-1.516,0-2.806,1.046-3.291,2.502
		c0.192,0.111,0.475,0.219,0.866,0.282c1.016,0.165,2.146-0.04,2.571-0.467c0.121-0.12,0.293-0.172,0.46-0.136
		c0.166,0.036,0.302,0.154,0.362,0.313c0.033,0.09,0.137,0.363,0.676,0.479C14.248,12.104,14.978,11.957,15.377,11.796z"/>
</g>
</svg>
