<?xml version="1.0" encoding="utf-8"?>
<!-- Generator: Adobe Illustrator 17.0.0, SVG Export Plug-In . SVG Version: 6.00 Build 0)  -->
<!DOCTYPE svg PUBLIC "-//W3C//DTD SVG 1.1//EN" "http://www.w3.org/Graphics/SVG/1.1/DTD/svg11.dtd">
<svg version="1.1" id="Layer_1" xmlns="http://www.w3.org/2000/svg" xmlns:xlink="http://www.w3.org/1999/xlink" x="0px" y="0px"
	 width="64px" height="64px" viewBox="0 0 64 64" enable-background="new 0 0 64 64" xml:space="preserve">
<g id="Layer_1_1_">
	<path fill="#B7B1A9" d="M32,0C14.328,0,0,14.328,0,32s14.327,32,32,32s32-14.327,32-32C64,14.328,49.672,0,32,0z M31.999,7.949
		c2.139,0,3.876,1.734,3.876,3.874s-1.738,3.875-3.876,3.875c-2.139,0-3.873-1.736-3.873-3.875S29.86,7.949,31.999,7.949z
		 M42.093,23.53v10.799c0,0.871-0.776,1.574-1.734,1.574c-0.959,0-1.736-0.703-1.736-1.574v-5.836v-1.919v-1.195v-0.001
		c0-0.406-0.329-0.736-0.736-0.736c-0.389,0-0.699,0.304-0.726,0.686c-0.005,0.019-0.021,0.031-0.021,0.051v3.35v25.117
		c0,1.219-0.986,2.206-2.204,2.206c-1.218,0-2.207-0.988-2.207-2.206v-0.03V42.388V36.86v-1.061c0-0.4-0.326-0.727-0.729-0.728
		c-0.404,0-0.729,0.328-0.729,0.728v1.061v5.528v11.427v0.03c0,1.219-0.988,2.206-2.207,2.206c-1.218,0-2.204-0.988-2.204-2.206
		V28.728v-3.35c0-0.02-0.017-0.033-0.021-0.051c-0.027-0.382-0.337-0.686-0.726-0.686c-0.406,0-0.736,0.329-0.736,0.736v0.001v1.195
		v1.919v5.836c0,0.871-0.777,1.574-1.736,1.574c-0.959,0-1.734-0.703-1.734-1.574V23.529c0-0.072,0-0.547,0-0.698
		c0-3.386,3.609-5.854,6.95-6.041l2.408-0.016v-0.009l0.736,0.005l0.736-0.005v0.009l2.408,0.016c3.34,0.186,6.95,2.655,6.95,6.041
		C42.093,22.983,42.093,23.458,42.093,23.53z"/>
</g>
<g id="Layer_2">
</g>
</svg>
