<?xml version="1.0" encoding="utf-8"?>
<!-- Generator: Adobe Illustrator 16.2.1, SVG Export Plug-In . SVG Version: 6.00 Build 0)  -->
<!DOCTYPE svg PUBLIC "-//W3C//DTD SVG 1.1//EN" "http://www.w3.org/Graphics/SVG/1.1/DTD/svg11.dtd">
<svg version="1.1" id="Layer_1" xmlns="http://www.w3.org/2000/svg" xmlns:xlink="http://www.w3.org/1999/xlink" x="0px" y="0px"
	 width="100px" height="62.941px" viewBox="0 0 100 62.941" enable-background="new 0 0 100 62.941" xml:space="preserve">
<g>
	<g>
		<path fill="#c30000" d="M47.221,34.733h-0.893c-1.27,0-2.304,1.035-2.304,2.306c0,1.271,1.034,2.303,2.304,2.303h3.194v-2.303
			C49.522,35.767,48.489,34.733,47.221,34.733z M46.735,0.47c-17.116,0-30.997,13.881-30.997,31.002
			c0,17.119,13.881,30.998,30.997,30.998c17.124,0,31.006-13.879,31.006-30.998C77.741,14.351,63.858,0.47,46.735,0.47z
			 M73.566,29.835l-5.92,14.654c-0.206,0.52-0.733,0.52-0.733,0.52h-5.618c0,0-0.524,0-0.734-0.52L55.224,31.24v8.101h1.696
			c0,0,0.497,0,0.425,0.391h-0.002c-0.009,0.036-1.909,4.757-1.909,4.757c-0.211,0.52-0.733,0.52-0.733,0.52h-4.755
			c-0.229,0-0.421-0.187-0.421-0.423v-4.551l-1.798,4.454c-0.21,0.52-0.738,0.52-0.738,0.52h-0.614c-2.808,0-5.066-1.15-6.438-3.072
			l-1.033,2.553c-0.208,0.52-0.733,0.52-0.733,0.52h-4.657c-0.232,0-0.421-0.187-0.421-0.423v-5.949c0-1.71-0.064-2.289-0.32-2.77
			c-0.125-0.227-0.354-0.42-0.608-0.516c-0.424-0.196-0.654-0.226-1.741-0.226h-1.893v9.46c0,0.235-0.19,0.423-0.42,0.423h-4.858
			c-0.237,0-0.422-0.187-0.422-0.423v-9.46h-1.884c-0.458,0-0.257-0.497-0.257-0.497l2.003-4.968
			c0.138-0.335,0.516-0.335,0.516-0.335h4.901c0.229,0,0.42,0.192,0.42,0.421v4.689l1.928-4.776
			c0.135-0.335,0.518-0.335,0.518-0.335h2.118c1.804,0,2.644,0.193,3.578,0.74c0.454,0.291,0.871,0.646,1.159,1.065
			c0.629,0.855,0.822,1.69,0.862,4.021c0.731-3.513,3.078-5.826,6.589-5.826c1.567,0,4.244,1.075,4.244,3.59v-3.168
			c0-0.229,0.192-0.421,0.421-0.421H60.54c0,0,0.383,0,0.517,0.335l3.046,9.336l3.054-9.336c0.133-0.335,0.513-0.335,0.513-0.335
			h5.511C73.178,29.325,73.771,29.325,73.566,29.835z M0.748,45.009h6.095l6.328-15.683H7.084L0.748,45.009z M78.934,45.009h3.319
			l6.256-15.683H85.19L78.934,45.009z M97.488,29.325l-6.253,15.683h1.762l6.255-15.683H97.488z"/>
	</g>
</g>
</svg>
