<svg xmlns="http://www.w3.org/2000/svg" viewBox="0 0 121 116">
    <path fill="#f6cf2b" stroke-width=".3"
          d="M35 115v-3h10v-4-4l-2-1c-6-1-13-4-17-7C11 85 5 65 8 44l1-3-4-2c-5-3-6-4-5-5s2-2 9-4l5-2 1-2 2-4c6-8 13-14 22-16l3-1-1-1V1c1-1 2-1 4 1l2 2 2-2 3-2c2 0 3 2 1 4l-1 1 2 1c10 1 17 7 24 18l7 13c6 13 8 16 12 20l8 3h10c4-1 5-1 6 1l-4 9a62 62 0 01-47 35l-3 1 1 3v3h2l4 1-1 2-19 1H36zm28-6v-3h-4a103 103 0 01-10-1v6l7 1h7z"/>
    <path fill="#efb60d"
          d="M35 115v-2l5-1h5v-8l-3-1c-14-4-24-12-29-25-4-7-5-14-5-22a67 67 0 011-15l-4-3-4-3v-2a244 244 0 0113-5l2-3c2-5 6-8 10-12l13-7 3-1V4c-2-1-2-2-1-3l1-1 3 2 2 2 2-2c2-2 3-2 4-1v3l-1 1 1 1c4 0 9 2 13 5l9 8 10 18c2 6 6 12 7 13 3 6 7 9 12 10l6 1 6-1 4 1c1 1 0 3-2 8-7 14-18 24-30 31l-18 5h-3v7h3l4 1-1 2-19 1-19-1zm28-6v-4H52c-3-1-3-1-3 3v4h14zm5-15a54 54 0 0029-11 89 89 0 0015-18h-3c-9 0-16-4-22-15l-6-11-13-22c-5-5-11-7-19-7-5-1-9 0-14 2-10 5-18 16-22 31l-1 13c0 7 1 11 4 17a41 41 0 0030 20l3 1h6l3 1 10-1zm-9-13c-8-1-14-6-17-13v-4c1-2 3-1 4 2a18 18 0 0018 11l6-1 8-2 1-1-4-4-5-5c0-1 1-3 3-2l7 5 5 7-4 4c-7 2-11 3-17 3h-5zM30 31l-1-1 1-2h8v3l-4 1-4-1z"/>
    <path fill="#090805" stroke-width=".3"
          d="M36 115l-1-2 5-1h5l1-4-1-5h-1l-12-4c-11-6-19-16-22-28l-1-8a87 87 0 011-22l-5-3-4-3v-2a176 176 0 0113-4l2-3A41 41 0 0132 9l10-3V1l3 2 2 2 2-2c2-2 3-3 4-2v2l-1 1v2h2c8 2 15 6 20 13l10 18c5 11 7 13 9 16 4 5 8 7 13 8h11l2-1v4l-5 10c-3 6-5 8-9 12a58 58 0 01-38 19v7h3l3 1v2H36zm27-3v-7h-3l-9-1c-3 0-3 0-3 4l1 4h14zm5-10c14-2 24-7 33-16a58 58 0 0015-22h-3c-8 1-15-1-20-7-4-3-6-7-11-18-7-14-9-18-14-22-5-5-8-7-15-8H41c-12 3-22 13-27 28l-2 9-1 9c0 13 4 25 12 33s16 12 32 14h13zm-9-22l-5-1c-5-2-10-7-12-11-1-3 0-4 2-4l1 2c2 5 7 10 13 11l9 1 13-4-4-5-5-5 2-2 6 6c6 6 6 6 5 7a58 58 0 01-16 5h-9zM31 31c-2 0-2-2 0-3h6v3h-6zm-20 4c1-3 1-3-2-1l-2 1 3 2 1-2z"/>
</svg>
