<svg xmlns="http://www.w3.org/2000/svg" class="navLogo" width="90" viewBox="0 0 269 169">
    <g fill="none" fill-rule="evenodd">
        <path fill="#C30000"
              d="M125.3 169a84.5 84.5 0 1 1 0-169 84.5 84.5 0 0 1 0 169zM0 121.3l17.3-42.8h16.6l-17.3 42.8zm213 0l17-42.8h9.1l-17 42.8z"/>
        <path fill="#C30000" d="M.6 43.4L17.6.7h4.8l-17 42.7z" mask="url(#b)" transform="translate(246 78)"/>
        <path fill="#FEFEFE"
              d="M197.4 78.6h-15s-1 0-1.5 1l-8.3 25.4-8.3-25.5c-.3-.9-1.4-.9-1.4-.9h-28.8c-.7 0-1.2.6-1.2 1.2v8.6c0-6.8-7.3-9.8-11.6-9.8-9.5 0-16 6.3-18 15.9 0-6.3-.6-8.6-2.3-11a11 11 0 0 0-3.1-2.9c-2.6-1.4-4.9-2-9.8-2h-5.7s-1 0-1.5 1l-5.2 13V79.8c0-.6-.5-1.2-1.1-1.2H61.2s-1 0-1.4 1L54.3 93s-.5 1.3.7 1.3h5.2v25.8c0 .7.5 1.2 1.1 1.2h13.3c.6 0 1.1-.5 1.1-1.2V94.4h5.2c3 0 3.5.1 4.7.6.7.3 1.3.8 1.7 1.4.7 1.4.8 3 .8 7.6v16.2c0 .7.5 1.2 1.2 1.2H102s1.4 0 2-1.5l2.8-7c3.7 5.3 9.9 8.5 17.5 8.5h1.7s1.4 0 2-1.5l4.9-12v12.3c0 .7.5 1.2 1.2 1.2H147s1.4 0 2-1.5l5.2-13c.2-1-1.1-1-1.1-1h-4.7V84l14.6 36c.6 1.5 2 1.5 2 1.5h15.3s1.4 0 2-1.5L198.4 80c.6-1.4-1-1.4-1-1.4zM132.9 106h-8.7a6.3 6.3 0 1 1 0-12.5h2.4c3.5 0 6.3 2.8 6.3 6.2v6.3z"/>
    </g>
</svg>
