<svg xmlns="http://www.w3.org/2000/svg" viewBox="0 0 318 530">
    <style>.st1,.st2{fill:#0056bc;stroke:#000;stroke-width:6;stroke-miterlimit:10}.st2{fill:#ffe000}</style>
    <path d="M318 443s-69 2-102 11-67 20-70 21c-2 1-44 19-54 25l-36 23v-3-11c5-16 30-401 30-401l232 335" fill="#ff0"
          stroke="#000" stroke-width="6" stroke-miterlimit="10"/>
    <path class="st1"
          d="M130 171l-50 24-3 41 76-33zM75 274l98-42 22 32-123 49zM69 351l148-54 28 40-179 59zM63 432l-3 43 230-72-23-34zM89 121s4-60 24-73 47 5 51 11 0 32 0 32-11-23-25-28-23-1-30 10c-8 11-20 48-20 48z"/>
    <path class="st1" d="M90 122s-18-54-5-82 40-36 46-34 11 26 11 26-17-10-31-1-20 18-22 33c-2 16 1 58 1 58z"/>
    <path class="st1" d="M89 117s19-49 41-47 41 35 43 43-9 29-9 29-3-28-15-41c-12-14-21-17-30-12-9 6-30 28-30 28z"/>
    <path class="st1" d="M90 121s-5-60-25-73-47 5-51 11 0 32 0 32 11-23 26-28 23-1 30 10 20 48 20 48z"/>
    <path class="st1" d="M89 121s-26-32-46-15-27 59-27 67c0 9 15 21 15 21s-4-28 3-48 14-29 24-30c10-2 31 5 31 5z"/>
    <path class="st1" d="M92 123S73 71 51 72s-41 33-43 41 8 30 8 30 4-29 16-42 21-16 30-10 30 32 30 32z"/>
    <path class="st1" d="M86 108l-4 59 31-20z"/>
    <path class="st2"
          d="M144 252l40-7-19 35 19 36-39-7-28 29-6-39-36-18 36-18 5-39zM85 440l6 39 28-29 39 7-18-36 18-35-39 7-29-28-5 39-20 4-1 21zM272 382l18 36-39-7-28 29-6-40-36-17 36-18 5-39 29 28 4-3 19 28z"/>
</svg>
