<svg xmlns="http://www.w3.org/2000/svg" xmlns:xlink="http://www.w3.org/1999/xlink" viewBox="0 0 24.9 25">
  <defs>
    <path id="a" d="M13.2.9H13C9.8 1 6.7 2.3 4.5 4.6A11.7 11.7 0 0 0 1 13.2C1.1 19.8 6.3 25 12.8 25h.2c6.7-.1 12.1-5.6 12-12.2A11.8 11.8 0 0 0 13.2.9z"/>
  </defs>
  <clipPath id="b">
    <use overflow="visible" xlink:href="#a"/>
  </clipPath>
  <defs>
    <path id="c" d="M12.5 7.2c0-.3.2-.5.5-.5s.5.2.5.5v7.3c0 .3-.2.5-.5.5s-.5-.2-.5-.5V7.2z"/>
  </defs>
  <clipPath id="d">
    <use overflow="visible" xlink:href="#c"/>
  </clipPath>
  <defs>
    <path id="e" d="M13 19.2c-.6 0-1.1-.5-1.1-1 0-.6.4-1.1 1-1.1s1 .5 1 1c.2.6-.3 1.1-.9 1.1z"/>
  </defs>
  <clipPath id="f">
    <use overflow="visible" xlink:href="#e"/>
  </clipPath>
  <defs>
    <path id="g" d="M-13.8.9h-.2c-3.2.1-6.2 1.4-8.5 3.7a12.1 12.1 0 0 0-3.5 8.6c.1 6.6 5.3 11.8 11.8 11.8h.2c6.7-.1 12.1-5.6 12-12.2A11.8 11.8 0 0 0-13.8.9z"/>
  </defs>
  <clipPath id="h">
    <use overflow="visible" xlink:href="#g"/>
  </clipPath>
  <g clip-path="url(#h)">
    <defs>
      <path id="i" d="M-26 .9h24v24h-24z"/>
    </defs>
    <clipPath id="j">
      <use overflow="visible" xlink:href="#i"/>
    </clipPath>
    <path fill="#ffb249" d="M-31-4.1H3v34h-34z" clip-path="url(#j)"/>
  </g>
  <defs>
    <path id="k" d="M-14.5 7.2c0-.3.2-.5.5-.5s.5.2.5.5v7.3c0 .3-.2.5-.5.5s-.5-.2-.5-.5V7.2z"/>
  </defs>
  <clipPath id="l">
    <use overflow="visible" xlink:href="#k"/>
  </clipPath>
  <g clip-path="url(#l)">
    <defs>
      <path id="m" d="M-26 .9h24v24h-24z"/>
    </defs>
    <clipPath id="n">
      <use overflow="visible" xlink:href="#m"/>
    </clipPath>
    <path fill="#3e3832" d="M-19.5 1.7h11V20h-11z" clip-path="url(#n)"/>
  </g>
  <g>
    <defs>
      <path id="o" d="M-14 19.2c-.6 0-1.1-.5-1.1-1 0-.6.4-1.1 1-1.1s1 .5 1 1c.2.6-.3 1.1-.9 1.1z"/>
    </defs>
    <clipPath id="p">
      <use overflow="visible" xlink:href="#o"/>
    </clipPath>
    <g clip-path="url(#p)">
      <defs>
        <path id="q" d="M-26 .9h24v24h-24z"/>
      </defs>
      <clipPath id="r">
        <use overflow="visible" xlink:href="#q"/>
      </clipPath>
      <path fill="#3e3832" d="M-20 12.1h12.1v12.1H-20z" clip-path="url(#r)"/>
    </g>
  </g>
  <g>
    <defs>
      <path id="s" d="M12.5 21.1a1 1 0 0 1 0-2c.5 0 1 .4 1 1 0 .5-.5 1-1 1zm-.5-12c0-.3.2-.5.5-.5s.5.2.5.5v7.7c0 .3-.2.5-.5.5s-.5-.2-.5-.5V9.1zm11.9 14l-11-21.9c-.2-.3-.7-.3-.9 0l-11 22v.5l.4.2h22c.3 0 .5-.2.5-.5v-.3z"/>
    </defs>
    <clipPath id="t">
      <use overflow="visible" xlink:href="#s"/>
    </clipPath>
    <g clip-path="url(#t)">
      <defs>
        <path id="u" d="M1 .9h24v23H1z"/>
      </defs>
      <clipPath id="v">
        <use overflow="visible" xlink:href="#u"/>
      </clipPath>
      <path fill="#ba3a26" d="M-4-4h33v33H-4z" clip-path="url(#v)"/>
    </g>
  </g>
</svg>