<svg xmlns="http://www.w3.org/2000/svg" xmlns:xlink="http://www.w3.org/1999/xlink" viewBox="0 0 24.9 25">
  <defs>
    <path id="a" d="M13.2.9H13C9.8 1 6.7 2.3 4.5 4.6A11.7 11.7 0 0 0 1 13.2C1.1 19.8 6.3 25 12.8 25h.2c6.7-.1 12.1-5.6 12-12.2C24.9 6.1 19.7.9 13.2.9z"/>
  </defs>
  <clipPath id="b">
    <use overflow="visible" xlink:href="#a"/>
  </clipPath>
  <g clip-path="url(#b)">
    <defs>
      <path id="c" d="M1 .9h24v24H1z"/>
    </defs>
  </g>
  <defs>
    <path id="d" d="M12.5 7.2c0-.3.2-.5.5-.5s.5.2.5.5v7.3c0 .3-.2.5-.5.5s-.5-.2-.5-.5V7.2z"/>
  </defs>
  <clipPath id="e">
    <use overflow="visible" xlink:href="#d"/>
  </clipPath>
  <g clip-path="url(#e)">
    <defs>
      <path id="f" d="M1 .9h24v24H1z"/>
    </defs>
  </g>
  <defs>
    <path id="g" d="M13 19.2c-.6 0-1.1-.5-1.1-1 0-.6.4-1.1 1-1.1s1 .5 1 1c.2.6-.3 1.1-.9 1.1z"/>
  </defs>
  <clipPath id="h">
    <use overflow="visible" xlink:href="#g"/>
  </clipPath>
  <g clip-path="url(#h)">
    <defs>
      <path id="i" d="M1 .9h24v24H1z"/>
    </defs>
  </g>
  <g>
    <defs>
      <path id="j" d="M-13.8.9h-.2c-3.2.1-6.2 1.4-8.5 3.7a12.1 12.1 0 0 0-3.5 8.6c.1 6.6 5.3 11.8 11.8 11.8h.2c6.7-.1 12.1-5.6 12-12.2C-2.1 6.1-7.3.9-13.8.9z"/>
    </defs>
    <clipPath id="k">
      <use overflow="visible" xlink:href="#j"/>
    </clipPath>
    <g clip-path="url(#k)">
      <defs>
        <path id="l" d="M-26 .9h24v24h-24z"/>
      </defs>
      <clipPath id="m">
        <use overflow="visible" xlink:href="#l"/>
      </clipPath>
      <path fill="#ffb249" d="M-31-4.1H3v34h-34z" clip-path="url(#m)"/>
    </g>
  </g>
  <g>
    <defs>
      <path id="n" d="M-14.5 7.2c0-.3.2-.5.5-.5s.5.2.5.5v7.3c0 .3-.2.5-.5.5s-.5-.2-.5-.5V7.2z"/>
    </defs>
    <clipPath id="o">
      <use overflow="visible" xlink:href="#n"/>
    </clipPath>
    <g clip-path="url(#o)">
      <defs>
        <path id="p" d="M-26 .9h24v24h-24z"/>
      </defs>
      <clipPath id="q">
        <use overflow="visible" xlink:href="#p"/>
      </clipPath>
      <path fill="#3e3832" d="M-19.5 1.7h11V20h-11z" clip-path="url(#q)"/>
    </g>
  </g>
  <g>
    <defs>
      <path id="r" d="M-14 19.2c-.6 0-1.1-.5-1.1-1 0-.6.4-1.1 1-1.1s1 .5 1 1c.2.6-.3 1.1-.9 1.1z"/>
    </defs>
    <clipPath id="s">
      <use overflow="visible" xlink:href="#r"/>
    </clipPath>
    <g clip-path="url(#s)">
      <defs>
        <path id="t" d="M-26 .9h24v24h-24z"/>
      </defs>
      <clipPath id="u">
        <use overflow="visible" xlink:href="#t"/>
      </clipPath>
      <path fill="#3e3832" d="M-20 12.1h12.1v12.1H-20z" clip-path="url(#u)"/>
    </g>
  </g>
  <g>
    <defs>
      <path id="v" d="M12.5 21.1a1 1 0 0 1 0-2c.5 0 1 .4 1 1 0 .5-.5 1-1 1zm-.5-12c0-.3.2-.5.5-.5s.5.2.5.5v7.7c0 .3-.2.5-.5.5s-.5-.2-.5-.5V9.1zm11.9 14l-11-21.9c-.2-.3-.7-.3-.9 0l-11 22c-.1.2-.1.3 0 .5.1.1.3.2.4.2h22c.3 0 .5-.2.5-.5.1-.1.1-.2 0-.3z"/>
    </defs>
    <clipPath id="w">
      <use overflow="visible" xlink:href="#v"/>
    </clipPath>
    <g clip-path="url(#w)">
      <defs>
        <path id="x" d="M1 .9h24v23H1z"/>
      </defs>
      <clipPath id="y">
        <use overflow="visible" xlink:href="#x"/>
      </clipPath>
      <path fill="#ba3a26" d="M-4-4h33v33H-4z" clip-path="url(#y)"/>
    </g>
  </g>
</svg>
