<?xml version="1.0" encoding="utf-8"?>
<svg version="1.1" id="Filled_Version" xmlns="http://www.w3.org/2000/svg" xmlns:xlink="http://www.w3.org/1999/xlink" x="0px"
     y="0px" width="24px" height="24px" viewBox="0 0 24 24" enable-background="new 0 0 24 24" xml:space="preserve">
<path d="M23.5,10h-2.854c-0.2-0.79-0.454-1.667-0.778-2.332l2.032-2.032c0.095-0.094,0.147-0.222,0.147-0.354
	s-0.053-0.26-0.147-0.354L19.07,2.102c-0.195-0.196-0.512-0.196-0.707,0l-2.032,2.031C15.666,3.809,14.789,3.555,14,3.356V0.5
	C14,0.224,13.776,0,13.5,0h-3C10.225,0,10,0.224,10,0.5v2.856C9.211,3.555,8.334,3.809,7.669,4.133L5.637,2.102
	c-0.196-0.196-0.512-0.196-0.707,0L2.101,4.929c-0.195,0.194-0.195,0.512,0,0.707l2.033,2.033C3.811,8.331,3.556,9.209,3.355,10H0.5
	C0.225,10,0,10.224,0,10.5v3C0,13.776,0.225,14,0.5,14h2.855c0.2,0.791,0.455,1.668,0.778,2.331L2.1,18.364
	c-0.094,0.094-0.146,0.221-0.146,0.354s0.053,0.26,0.146,0.354l2.83,2.828c0.188,0.188,0.52,0.188,0.707,0l2.032-2.032
	c0.663,0.322,1.54,0.577,2.331,0.778V23.5c0,0.276,0.225,0.5,0.5,0.5h3c0.276,0,0.5-0.224,0.5-0.5v-2.854
	c0.791-0.201,1.668-0.456,2.331-0.778l2.034,2.032c0.195,0.195,0.512,0.195,0.707,0l2.827-2.828c0.196-0.195,0.196-0.512,0-0.707
	l-2.032-2.033c0.323-0.663,0.578-1.54,0.778-2.331H23.5c0.276,0,0.5-0.224,0.5-0.5v-3C24,10.224,23.776,10,23.5,10z M12,16
	c-2.205,0-4-1.795-4-4s1.795-4,4-4c2.206,0,4,1.795,4,4S14.206,16,12,16z"/>
</svg>
