
<!-- Generator: Adobe Illustrator 16.0.0, SVG Export Plug-In . SVG Version:
6.00 Build 0) -->
<svg contentScriptType="text/ecmascript" zoomAndPan="magnify"
     xmlns:xlink="http://www.w3.org/1999/xlink" contentStyleType="text/css"
     id="Filled_Version" enable-background="new 0 0 24 24" version="1.1"
     xml:space="preserve" width="24px" preserveAspectRatio="xMidYMid meet"
     viewBox="0 0 24 24" height="24px" xmlns="http://www.w3.org/2000/svg"
     x="0px" y="0px">
    <g fill="#0067c5">
        <path fill="#0067c5"
              d="M17,10.026V5.5c0-0.133-0.053-0.26-0.146-0.354l-5-5C11.76,0.053,11.633,0,11.5,0h-11C0.225,0,0,0.224,0,0.5v21   C0,21.776,0.225,22,0.5,22h11.014C10.568,20.744,10,19.189,10,17.5C10,13.533,13.098,10.284,17,10.026z M11.5,0.5l5,5h-5V0.5z"/>
        <path fill="#0067c5"
              d="M17.5,11c-3.584,0-6.5,2.915-6.5,6.5c0,1.612,0.594,3.086,1.568,4.223l9.156-9.153C20.588,11.594,19.113,11,17.5,11z"/>
        <path fill="#0067c5"
              d="M22.432,13.276l-9.156,9.153C14.414,23.406,15.887,24,17.5,24c3.584,0,6.5-2.916,6.5-6.5   C24,15.888,23.406,14.414,22.432,13.276z"/></g></svg>