<?xml version="1.0" encoding="utf-8"?>
<svg version="1.1" xmlns="http://www.w3.org/2000/svg" preserveAspectRatio="xMidYMid meet" viewBox="0 0 24 24" height="24px" width="24px">
    <g fill="currentColor">
        <path
              d="M18.352,8.14C17.111,5.802,14.652,4.308,12,4.308c-3.618,0-6.648,2.693-7.123,6.227c-2.365-0.18-4.378,1.725-4.377,4.076   c0,3.273,2.825,4.176,4.326,4.197H10.5v-5.305c0-0.827,0.672-1.5,1.5-1.5c0.826,0,1.5,0.673,1.5,1.5v5.305h5.233l0.039-0.006   c0.048-0.008,4.729-0.789,4.729-5.387C23.5,10.548,21.202,8.208,18.352,8.14z"/>
        <path
              d="M15.354,20.15c-0.001-0.002-0.002-0.002-0.002-0.002c-0.192-0.188-0.512-0.188-0.703,0l-0.002,0.002l-1.074,1.073   L12.5,22.296v-8.793c0-0.276-0.225-0.5-0.5-0.5c-0.276,0-0.5,0.224-0.5,0.5v8.793l-1.074-1.073L9.354,20.15   c-0.19-0.19-0.506-0.201-0.707,0c-0.197,0.197-0.193,0.514,0,0.707l0.666,0.666l2.332,2.332c0.19,0.191,0.515,0.195,0.708,0.002   l2.333-2.333l0.668-0.667C15.549,20.662,15.549,20.345,15.354,20.15z"/>
    </g>
</svg>
