<?xml version="1.0" encoding="UTF-8"?>
<svg id="Layer_1" data-name="Layer 1" xmlns="http://www.w3.org/2000/svg" version="1.1" viewBox="0 0 841.9 595.3">
  <defs>
    <style>
      .cls-1 {
        fill: #fff;
        fill-rule: evenodd;
        stroke-width: 0px;
      }
    </style>
  </defs>
  <path class="cls-1" d="M514.8,269.8h-19.9s-1.4,0-1.9,1.2l-11,33.8-11-33.8c-.5-1.2-1.9-1.2-1.9-1.2h-38.3c-.8,0-1.5.7-1.5,1.5v11.5c0-9.1-9.7-13-15.3-13-12.7,0-21.2,8.4-23.8,21.1-.1-8.4-.8-11.5-3.1-14.5-1-1.5-2.5-2.8-4.2-3.8-3.4-2-6.4-2.7-12.9-2.7h-7.7s-1.4,0-1.9,1.2l-7,17.3v-17c0-.8-.7-1.5-1.5-1.5h-17.7s-1.4,0-1.9,1.2l-7.2,18s-.7,1.8.9,1.8h6.8v34.2c0,.9.7,1.5,1.5,1.5h17.6c.8,0,1.5-.7,1.5-1.5v-34.2h6.9c3.9,0,4.8.1,6.3.8.9.4,1.8,1,2.2,1.9.9,1.7,1.2,3.8,1.2,10v21.5c0,.9.7,1.5,1.5,1.5h16.8s1.9,0,2.6-1.9l3.7-9.2c5,7,13.1,11.1,23.3,11.1h2.2s1.9,0,2.7-1.9l6.5-16.1v16.5c0,.9.7,1.5,1.5,1.5h17.2s1.9,0,2.7-1.9c0,0,6.9-17.1,6.9-17.2h0c.3-1.4-1.5-1.4-1.5-1.4h-6.1v-29.3l19.3,47.9c.8,1.9,2.6,1.9,2.6,1.9h20.3s1.9,0,2.7-1.9l21.4-53c.7-1.8-1.4-1.8-1.4-1.8h0ZM429.2,306h-11.5c-4.6,0-8.3-3.7-8.3-8.3s3.7-8.3,8.3-8.3h3.2c4.6,0,8.3,3.7,8.3,8.3v8.3h0Z"/>
</svg>