<svg version="1.2" xmlns="http://www.w3.org/2000/svg" viewBox="0 0 192 58" width="192" height="58">
	<title>NAV_logo_digital_Red</title>
	<style>
		.s0 { fill: #c30000 } 
	</style>
	<path fill-rule="evenodd" class="s0" d="m189.9 0.9c0 0 2.1 0 1.4 1.8l-21.4 53c-0.8 1.9-2.7 1.9-2.7 1.9h-20.3c0 0-1.8 0-2.6-1.9l-19.3-47.9v29.3h6.1c0 0 1.8 0 1.5 1.4 0 0.1-6.9 17.2-6.9 17.2-0.8 1.9-2.7 1.9-2.7 1.9h-17.2c-0.8 0-1.5-0.6-1.5-1.5v-16.5l-6.5 16.1c-0.8 1.9-2.7 1.9-2.7 1.9h-2.2c-10.2 0-18.3-4.1-23.3-11.1l-3.7 9.2c-0.7 1.9-2.6 1.9-2.6 1.9h-16.8c-0.8 0-1.5-0.6-1.5-1.5v-21.5c0-6.2-0.3-8.3-1.2-10-0.4-0.9-1.3-1.5-2.2-1.9-1.5-0.7-2.4-0.8-6.3-0.8h-6.9v34.2c0 0.8-0.7 1.5-1.5 1.5h-17.6c-0.8 0-1.5-0.6-1.5-1.5v-34.2h-6.8c-1.6 0-0.9-1.8-0.9-1.8l7.2-18c0.5-1.2 1.9-1.2 1.9-1.2h17.7c0.8 0 1.5 0.7 1.5 1.5v17l7-17.3c0.5-1.2 1.9-1.2 1.9-1.2h7.7c6.5 0 9.5 0.7 12.9 2.7 1.7 1 3.2 2.3 4.2 3.8 2.3 3 3 6.1 3.1 14.5 2.6-12.7 11.1-21.1 23.8-21.1 5.6 0 15.3 3.9 15.3 13v-11.5c0-0.8 0.7-1.5 1.5-1.5h38.3c0 0 1.4 0 1.9 1.2l11 33.8 11-33.8c0.5-1.2 1.9-1.2 1.9-1.2h19.9zm-85.7 27.8c0-4.6-3.7-8.3-8.3-8.3h-3.2c-4.6 0-8.3 3.7-8.3 8.3 0 4.6 3.7 8.3 8.3 8.3h11.5z"/>
</svg>