<svg xmlns="http://www.w3.org/2000/svg" xmlns:xlink="http://www.w3.org/1999/xlink" id="Layer_1" viewBox="0 0 17 16">
    <style>
        .st0{display:none}.st1{display:inline}.st3{fill-rule:evenodd;clip-rule:evenodd;fill:#0067c5}.st5{fill:none}.st6{fill:#0067c5}
    </style>
    <g class="st0">
        <defs>
            <path id="SVGID_1_" d="M-762-381.1H678v940H-762z"/>
        </defs>
        <clipPath id="SVGID_2_" class="st1">
            <use overflow="visible" xlink:href="#SVGID_1_"/>
        </clipPath>
    </g>
    <g class="st0">
        <defs>
            <path id="SVGID_3_" d="M63 3.9h16v15H63z"/>
        </defs>
        <clipPath id="SVGID_4_" class="st1">
            <use overflow="visible" xlink:href="#SVGID_3_"/>
        </clipPath>
        <path fill="#0067c5" d="M58 2.9h26v20.7H58z" clip-path="url(#SVGID_4_)"/>
    </g>
    <path d="M77.4 7.9H64.7c-.9 0-1.7.7-1.7 1.7v4c0 .9.7 1.7 1.7 1.7h1.7v3c0 .2.1.3.3.3h8.7c.2 0 .3-.1.3-.3v-3h1.7c.9 0 1.7-.7 1.7-1.7v-4c-.1-.9-.8-1.7-1.7-1.7zM67 17.9h8v-4.7h-8v4.7z" class="st3"/>
    <path fill="none" fill-rule="evenodd" d="M65.4 9.9c-.2 0-.3.1-.3.3 0 .2.1.3.3.3.2 0 .3-.1.3-.3l-.3-.3" clip-rule="evenodd"/>
    <path d="M-762-381.1H678v940H-762z" class="st5"/>
    <path d="M-762-381.1H678v940H-762z" class="st5"/>
    <path d="M67.5 3.9h7.1c.6 0 1 .4 1 1v1.4c0 .6-.4 1-1 1h-7.1c-.6 0-1-.4-1-1V4.9c0-.5.4-1 1-1z" class="st6"/>
    <path d="M14.8 4.9H2.2c-.9 0-1.7.7-1.7 1.7v4c0 .9.7 1.7 1.7 1.7h1.7v3c0 .2.1.3.3.3h8.7c.2 0 .3-.1.3-.3v-3h1.7c.9 0 1.7-.7 1.7-1.7v-4c-.1-1-.8-1.7-1.8-1.7zm-10.3 10h8v-4.7h-8v4.7z" class="st3"/>
    <path d="M4.9.9H12c.6 0 1 .4 1 1v1.4c0 .6-.4 1-1 1H4.9c-.6 0-1-.4-1-1V1.9c0-.6.5-1 1-1z" class="st6"/>
</svg>
